<?xml version="1.0" encoding="UTF-8"?>
<svg id="element" xmlns="http://www.w3.org/2000/svg" xmlns:xlink="http://www.w3.org/1999/xlink" viewBox="0 0 2400 2000">
  <defs>
    <style>
      .cls-1 {
        fill: none;
      }

      .cls-2 {
        fill: #42b0e6;
      }

      .cls-3 {
        clip-path: url(#clippath);
      }
    </style>
    <clipPath id="clippath">
      <rect class="cls-1" width="2400" height="2000"/>
    </clipPath>
  </defs>
  <g class="cls-3">
    <g>
      <g>
        <rect class="cls-2" x="1750.45" y="1055.06" width="110.09" height="110.09"/>
        <rect class="cls-2" x="1750.45" y="944.97" width="110.09" height="110.09"/>
        <rect class="cls-2" x="1750.45" y="834.88" width="110.09" height="110.09"/>
        <rect class="cls-2" x="1640.36" y="1055.06" width="110.09" height="110.09"/>
        <rect class="cls-2" x="1640.36" y="944.97" width="110.09" height="110.09"/>
        <rect class="cls-2" x="1640.36" y="834.88" width="110.09" height="110.09"/>
        <rect class="cls-2" x="1530.27" y="1055.06" width="110.09" height="110.09"/>
        <rect class="cls-2" x="1530.27" y="944.97" width="110.09" height="110.09"/>
        <rect class="cls-2" x="1530.27" y="834.88" width="110.09" height="110.09"/>
        <rect class="cls-2" x="1420.19" y="1055.06" width="110.09" height="110.09"/>
        <rect class="cls-2" x="1420.19" y="944.97" width="110.09" height="110.09"/>
        <rect class="cls-2" x="1420.19" y="834.88" width="110.09" height="110.09"/>
        <rect class="cls-2" x="1310.1" y="1055.06" width="110.09" height="110.09"/>
        <rect class="cls-2" x="1310.1" y="944.97" width="110.09" height="110.09"/>
        <rect class="cls-2" x="1310.1" y="834.88" width="110.09" height="110.09"/>
        <rect class="cls-2" x="1200.01" y="1165.14" width="110.09" height="110.09"/>
        <rect class="cls-2" x="1200.01" y="1055.06" width="110.09" height="110.09"/>
        <rect class="cls-2" x="1200.01" y="944.97" width="110.09" height="110.09"/>
        <rect class="cls-2" x="1200.01" y="834.88" width="110.09" height="110.09"/>
        <rect class="cls-2" x="1200.01" y="724.79" width="110.09" height="110.09"/>
        <rect class="cls-2" x="1089.9" y="1495.4" width="110.11" height="110.09"/>
        <rect class="cls-2" x="1089.9" y="1385.32" width="110.11" height="110.09"/>
        <rect class="cls-2" x="1089.9" y="1275.23" width="110.11" height="110.09"/>
        <rect class="cls-2" x="1089.9" y="1165.14" width="110.11" height="110.09"/>
        <rect class="cls-2" x="1089.9" y="1055.06" width="110.11" height="110.09"/>
        <rect class="cls-2" x="1089.9" y="944.97" width="110.11" height="110.09"/>
        <rect class="cls-2" x="1089.9" y="834.88" width="110.11" height="110.09"/>
        <rect class="cls-2" x="1089.9" y="724.79" width="110.11" height="110.09"/>
        <rect class="cls-2" x="1089.9" y="614.71" width="110.11" height="110.09"/>
        <rect class="cls-2" x="1089.9" y="504.6" width="110.11" height="110.11"/>
        <rect class="cls-2" x="1089.9" y="394.51" width="110.11" height="110.09"/>
        <rect class="cls-2" x="979.81" y="1385.32" width="110.09" height="110.09"/>
        <rect class="cls-2" x="979.81" y="1275.23" width="110.09" height="110.09"/>
        <rect class="cls-2" x="979.81" y="1165.14" width="110.09" height="110.09"/>
        <rect class="cls-2" x="979.81" y="1055.06" width="110.09" height="110.09"/>
        <rect class="cls-2" x="979.81" y="944.97" width="110.09" height="110.09"/>
        <rect class="cls-2" x="979.81" y="834.88" width="110.09" height="110.09"/>
        <rect class="cls-2" x="979.81" y="724.79" width="110.09" height="110.09"/>
        <rect class="cls-2" x="979.81" y="614.71" width="110.09" height="110.09"/>
        <rect class="cls-2" x="979.81" y="504.6" width="110.09" height="110.11"/>
        <rect class="cls-2" x="869.73" y="1275.23" width="110.09" height="110.09"/>
        <rect class="cls-2" x="869.73" y="1165.14" width="110.09" height="110.09"/>
        <rect class="cls-2" x="869.73" y="1055.06" width="110.09" height="110.09"/>
        <rect class="cls-2" x="869.73" y="944.97" width="110.09" height="110.09"/>
        <rect class="cls-2" x="869.73" y="834.88" width="110.09" height="110.09"/>
        <rect class="cls-2" x="869.73" y="724.79" width="110.09" height="110.09"/>
        <rect class="cls-2" x="869.73" y="614.71" width="110.09" height="110.09"/>
        <rect class="cls-2" x="759.64" y="1165.14" width="110.09" height="110.09"/>
        <rect class="cls-2" x="759.64" y="1055.06" width="110.09" height="110.09"/>
        <rect class="cls-2" x="759.64" y="944.97" width="110.09" height="110.09"/>
        <rect class="cls-2" x="759.64" y="834.88" width="110.09" height="110.09"/>
        <rect class="cls-2" x="759.64" y="724.79" width="110.09" height="110.09"/>
        <rect class="cls-2" x="649.55" y="1055.06" width="110.09" height="110.09"/>
        <rect class="cls-2" x="649.55" y="944.97" width="110.09" height="110.09"/>
        <rect class="cls-2" x="649.55" y="834.88" width="110.09" height="110.09"/>
        <rect class="cls-2" x="539.46" y="944.97" width="110.09" height="110.09"/>
      </g>
      <g>
        <rect x="1860.54" y="1055.06" width="110.09" height="110.09"/>
        <rect x="1860.54" y="944.97" width="110.09" height="110.09"/>
        <rect x="1860.54" y="834.88" width="110.09" height="110.09"/>
        <rect x="1750.45" y="1165.14" width="110.09" height="110.09"/>
        <rect x="1750.45" y="724.79" width="110.09" height="110.09"/>
        <rect x="1640.36" y="1165.14" width="110.09" height="110.09"/>
        <rect x="1640.36" y="724.79" width="110.09" height="110.09"/>
        <rect x="1530.27" y="1165.14" width="110.09" height="110.09"/>
        <rect x="1530.27" y="724.79" width="110.09" height="110.09"/>
        <rect x="1420.19" y="1165.14" width="110.09" height="110.09"/>
        <rect x="1420.19" y="724.79" width="110.09" height="110.09"/>
        <rect x="1310.1" y="1165.14" width="110.09" height="110.09"/>
        <rect x="1310.1" y="724.79" width="110.09" height="110.09"/>
        <rect x="1200.01" y="1715.58" width="110.09" height="110.09"/>
        <rect x="1200.01" y="1605.49" width="110.09" height="110.09"/>
        <rect x="1200.01" y="1495.4" width="110.09" height="110.09"/>
        <rect x="1200.01" y="1385.32" width="110.09" height="110.09"/>
        <rect x="1200.01" y="1275.23" width="110.09" height="110.09"/>
        <rect x="1200.01" y="614.71" width="110.09" height="110.09"/>
        <rect x="1200.01" y="504.6" width="110.09" height="110.11"/>
        <rect x="1200.01" y="394.51" width="110.09" height="110.09"/>
        <rect x="1200.01" y="284.42" width="110.09" height="110.09"/>
        <rect x="1200.01" y="174.33" width="110.09" height="110.09"/>
        <rect x="1089.9" y="1605.49" width="110.11" height="110.09"/>
        <rect x="1089.9" y="284.42" width="110.11" height="110.09"/>
        <rect x="979.81" y="1495.4" width="110.09" height="110.09"/>
        <rect x="979.81" y="394.51" width="110.09" height="110.09"/>
        <rect x="869.73" y="1385.32" width="110.09" height="110.09"/>
        <rect x="869.73" y="504.6" width="110.09" height="110.11"/>
        <rect x="759.64" y="1275.23" width="110.09" height="110.09"/>
        <rect x="759.64" y="614.71" width="110.09" height="110.09"/>
        <rect x="649.55" y="1165.14" width="110.09" height="110.09"/>
        <rect x="649.55" y="724.79" width="110.09" height="110.09"/>
        <rect x="539.46" y="1055.06" width="110.09" height="110.09"/>
        <rect x="539.46" y="834.88" width="110.09" height="110.09"/>
        <rect x="429.38" y="944.97" width="110.09" height="110.09"/>
      </g>
    </g>
  </g>
</svg>
